<svg xmlns="http://www.w3.org/2000/svg" version="1.1" xmlns:xlink="http://www.w3.org/1999/xlink" xmlns:svgjs="http://svgjs.dev/svgjs" width="2000" height="792" viewBox="0 0 2000 792"><g transform="matrix(1,0,0,1,-1.2112696095522324,-1.36073094036783)"><svg viewBox="0 0 396 157" data-background-color="#ffffff" preserveAspectRatio="xMidYMid meet" height="792" width="2000" xmlns="http://www.w3.org/2000/svg" xmlns:xlink="http://www.w3.org/1999/xlink"><g id="tight-bounds" transform="matrix(1,0,0,1,0.24008861730862918,0.26974085560321726)"><svg viewBox="0 0 395.52 156.46051828879357" height="156.46051828879357" width="395.52"><g><svg viewBox="0 0 395.52 156.46051828879357" height="156.46051828879357" width="395.52"><g><svg viewBox="0 0 395.52 156.46051828879357" height="156.46051828879357" width="395.52"><g id="textblocktransform"><svg viewBox="0 0 395.52 156.46051828879357" height="156.46051828879357" width="395.52" id="textblock"><g><svg viewBox="0 0 395.52 156.46051828879357" height="156.46051828879357" width="395.52"><path d="M394.594 33.558C392.735 17.317 387.435 12.802 387.435 12.802 371.165-3.925 350.86-0.32 332.619 2.084 300.414 2.181 268.339 5.754 236.208 7.67 168.767 7.963 100.749 3.155 33.643 15.011 27.339 18.649-6.54 15.726 1.121 35.637 3.129 43.919 10.456 53.111 10.232 60.712 11.236 62.044 12.631 58.99 13.226 60.907 15.309 66.071 18.711 63.635 21.501 66.689 17.614 74.841 20.403 81.63 23.062 88.743 18.377 90.595 12.371 89.718 9.675 95.857 9.396 100.306 7.89 99.462 6.235 99.267 5.026 99.137 2.59 99.624 2.999 101.021 4.394 105.796-1.594 108.557 2.162 113.234-0.422 118.301 3.948 122.686 3.353 128.175 3.278 129.28 3.687 130.222 4.338 130.481 7.22 131.878 3.018 134.606 3.464 137.562 33.029 157.765 65.104 143.799 95.394 153.088 103.259 146.592 97.346 155.394 100.489 154.03 102.943 152.439 104.728 159.032 107.499 155.297 107.927 154.225 107.276 151.692 108.8 152.179 109.6 152.439 110.307 152.374 110.418 150.879 110.586 148.638 109.117 150.035 108.726 148.866 112.947 142.954 111.906 157.018 115.866 156.434 115.68 154.712 114.528 152.244 116.889 152.569 119.232 150.1 119.306 148.054 121.389 153.608 121.463 154.81 121.835 155.654 122.43 156.239 128.938 150.197 135.409 158.383 142.233 155.654 146.417 152.666 150.433 157.278 154.672 156.141 156.16 155.232 157.666 153.608 159.098 156.336 176.632 156.921 195.319 154.485 211.943 156.434 256.364 152.796 303.836 157.928 350.674 153.121 361.719 151.269 373.192 148.638 383.958 146.527 383.958 146.527 392.679 140.745 392.679 114.761S394.538 92.024 394.817 71.333C395.096 50.643 396.398 49.798 394.538 33.558Z" opacity="1" fill="#eb512b" data-fill-palette-color="tertiary"></path><g transform="matrix(1,0,0,1,55.76832,26.230666666666668)"><svg width="283.98335999999995" viewBox="3.98 -41.19 147.99 54.199999999999996" height="103.99918495546022" data-palette-color="#ffffff"><path d="M36.35-9.55L36.35-9.55Q36.35-8.06 35.86-6.76 35.38-5.47 34.52-4.41 33.67-3.34 32.53-2.51 31.4-1.68 30.09-1.12 28.78-0.56 27.39-0.28 26 0 24.66 0L24.66 0 3.98 0 3.98-35.16 22.88-35.16Q24.12-35.16 25.49-34.97 26.86-34.79 28.16-34.4 29.47-34.01 30.65-33.37 31.84-32.74 32.73-31.82 33.62-30.91 34.14-29.71 34.67-28.52 34.67-26.98L34.67-26.98Q34.67-25.51 34.08-24.32 33.5-23.12 32.51-22.18 31.52-21.24 30.24-20.52 28.96-19.8 27.54-19.26L27.54-19.26Q29.32-18.77 30.92-17.97 32.52-17.16 33.73-15.99 34.94-14.82 35.64-13.22 36.35-11.62 36.35-9.55ZM24.83-26.12L24.83-26.12Q24.83-29.1 23.25-30.47 21.68-31.84 18.77-31.84L18.77-31.84 13.67-31.84 13.67-20.43 17.94-20.43Q19.26-20.43 20.51-20.76 21.75-21.09 22.72-21.79 23.68-22.49 24.26-23.56 24.83-24.63 24.83-26.12ZM26.54-10.16L26.54-10.16Q26.54-11.6 26.17-12.85 25.81-14.11 25.05-15.03 24.29-15.94 23.16-16.47 22.02-16.99 20.48-16.99L20.48-16.99 13.67-16.99 13.67-3.42 19.63-3.42Q21.12-3.42 22.39-3.91 23.66-4.39 24.58-5.27 25.51-6.15 26.03-7.4 26.54-8.64 26.54-10.16ZM49.58-32.62L49.58 0 41.33 0 41.33-41.19 44.5-41.19 49.58-32.62ZM86.25-14.16L86.25-14.16Q86.25-11.96 85.66-10.03 85.08-8.11 84.04-6.47 83-4.83 81.54-3.53 80.07-2.22 78.33-1.32 76.58-0.42 74.59 0.07 72.6 0.56 70.5 0.56L70.5 0.56Q68.4 0.56 66.43 0.07 64.45-0.42 62.7-1.32 60.96-2.22 59.49-3.53 58.03-4.83 56.99-6.47 55.95-8.11 55.37-10.05 54.78-11.99 54.78-14.16L54.78-14.16Q54.78-16.33 55.37-18.27 55.95-20.21 56.99-21.85 58.03-23.49 59.49-24.79 60.96-26.1 62.7-27 64.45-27.91 66.43-28.39 68.4-28.88 70.5-28.88L70.5-28.88Q72.6-28.88 74.59-28.39 76.58-27.91 78.33-27 80.07-26.1 81.54-24.79 83-23.49 84.04-21.85 85.08-20.21 85.66-18.27 86.25-16.33 86.25-14.16ZM77.85-14.16L77.85-14.16Q77.85-15.33 77.72-16.64 77.58-17.94 77.27-19.2 76.95-20.46 76.4-21.62 75.85-22.78 75.04-23.65 74.24-24.51 73.12-25.04 71.99-25.56 70.5-25.56L70.5-25.56Q69.09-25.56 67.99-25.02 66.89-24.49 66.07-23.6 65.25-22.71 64.7-21.53 64.16-20.36 63.81-19.1 63.47-17.85 63.33-16.56 63.18-15.28 63.18-14.16L63.18-14.16Q63.18-13.04 63.33-11.76 63.47-10.47 63.81-9.2 64.16-7.93 64.7-6.77 65.25-5.62 66.07-4.72 66.89-3.83 67.99-3.3 69.09-2.76 70.5-2.76L70.5-2.76Q71.97-2.76 73.09-3.28 74.21-3.81 75.03-4.69 75.85-5.57 76.39-6.71 76.92-7.86 77.25-9.13 77.58-10.4 77.72-11.69 77.85-12.99 77.85-14.16ZM119.84-28.2L119.84-3.39Q119.84-0.02 118.84 2.95 117.84 5.93 115.93 8.17 114.03 10.4 111.26 11.71 108.49 13.01 104.95 13.01L104.95 13.01Q103 13.01 101.01 12.57 99.02 12.13 97.25 11.22 95.48 10.3 94.07 8.9 92.67 7.5 91.86 5.59L91.86 5.59 95.43 4.25Q95.89 5.44 96.64 6.45 97.38 7.45 98.36 8.17 99.33 8.89 100.51 9.29 101.68 9.69 102.97 9.69L102.97 9.69Q105.41 9.69 107.06 8.69 108.71 7.69 109.71 6.08 110.71 4.47 111.15 2.43 111.59 0.39 111.59-1.71L111.59-1.71 111.59-3.37Q110.12-1.37 108.06-0.4 106 0.56 103.53 0.56L103.53 0.56Q100.31 0.56 97.77-0.59 95.23-1.73 93.47-3.72 91.72-5.71 90.79-8.4 89.86-11.08 89.86-14.16L89.86-14.16Q89.86-17.24 90.79-19.92 91.72-22.61 93.47-24.6 95.23-26.59 97.77-27.73 100.31-28.88 103.53-28.88L103.53-28.88Q105.17-28.88 106.65-28.39 108.12-27.91 109.36-27.01 110.59-26.12 111.53-24.87 112.47-23.61 113.01-22.07L113.01-22.07 116.67-28.2 119.84-28.2ZM111.54-14.16L111.54-14.16Q111.54-15.26 111.43-16.48 111.32-17.7 111.05-18.9 110.78-20.09 110.31-21.18 109.83-22.27 109.09-23.11 108.34-23.95 107.29-24.44 106.24-24.93 104.85-24.93L104.85-24.93Q103.46-24.93 102.43-24.43 101.41-23.93 100.68-23.08 99.94-22.24 99.47-21.14 98.99-20.04 98.72-18.85 98.45-17.65 98.34-16.44 98.23-15.23 98.23-14.16L98.23-14.16Q98.23-13.09 98.34-11.87 98.45-10.64 98.72-9.45 98.99-8.25 99.47-7.15 99.94-6.05 100.68-5.21 101.41-4.37 102.43-3.87 103.46-3.37 104.85-3.37L104.85-3.37Q106.12-3.37 107.11-3.89 108.1-4.42 108.84-5.3 109.59-6.18 110.1-7.3 110.61-8.42 110.93-9.62 111.25-10.82 111.39-12 111.54-13.18 111.54-14.16ZM146.25-28.2L151.97-28.2 141.71-3.39Q139.96 0.85 137.8 5.02 135.63 9.18 133.12 13.01L133.12 13.01 129.9 11.06Q130.51 9.96 131.34 8.52 132.17 7.08 132.97 5.54 133.78 4 134.46 2.5 135.15 1 135.51-0.24L135.51-0.24 123.18-28.2 131.44-28.2 139.81-9.13 146.25-28.2Z" opacity="1" transform="matrix(1,0,0,1,0,0)" fill="#ffffff" class="wordmark-text-0" data-fill-palette-color="quaternary" id="text-0"></path></svg></g></svg></g></svg></g></svg></g><g></g></svg></g><defs></defs></svg><rect width="395.52" height="156.46051828879357" fill="none" stroke="none" visibility="hidden"></rect></g></svg></g></svg>